# xmcd
#
# Track frame offsets: 
#        150
#        17543
#        34620
#        45782
#        57512
#        69345
#        80747
#        93074
#        107156
#        121741
#        131519
#        140027
#        155309
#        169143
#        179828
#        195398
#        206217
#        218468
#        230043
#        243938
#        256413
#        273706
#
# Disc length: 3833 seconds
#
# Revision: 0
# Processed by: cddbd v1.5.2PL0 Copyright (c) Steve Scherf et al.
# Submitted via: ExactAudioCopy v0.99pb5
#
DISCID=340ef716
DTITLE=Dusty Springfield - Disc 02 My Colouring Book - Dustys Songbook
DYEAR=2008
DGENRE=Country
TTITLE0=If You Go Away
TTITLE1=The Windmills Of Your Mind
TTITLE2=In The Land Of Make Believe
TTITLE3=Take Another Little Piece Of My Heart
TTITLE4=Will You Love Me Tomorrow?
TTITLE5=Mockingbird
TTITLE6=Oh No! Not My Baby
TTITLE7=No Easy Way Down
TTITLE8=I Think It's Going To Rain Today
TTITLE9=Another Night
TTITLE10=Sunny
TTITLE11=Who Can I Turn To? (When Nobody Nedds Me)
TTITLE12=Twenty-Four Hours From Tulsa
TTITLE13=I've Been Wrong Before
TTITLE14=Magic Garden
TTITLE15=Don't Let Me Lose This Dream
TTITLE16=Can I Get A Witness
TTITLE17=Needle In A Haystack
TTITLE18=When The Love Light Starts Shining Through His Eyes
TTITLE19=Don't Forget About Me
TTITLE20=I Can't Make It Alone
TTITLE21=My Colouring Book
EXTD=
EXTT0=
EXTT1=
EXTT2=
EXTT3=
EXTT4=
EXTT5=
EXTT6=
EXTT7=
EXTT8=
EXTT9=
EXTT10=
EXTT11=
EXTT12=
EXTT13=
EXTT14=
EXTT15=
EXTT16=
EXTT17=
EXTT18=
EXTT19=
EXTT20=
EXTT21=
PLAYORDER=
